<svg version="1.1" viewBox="0 0 100 125">
<g transform="translate(0 -952.36)">
<path d="m48.939 968.15c-0.1366 0.0119-0.2635 0.0586-0.4062 0.0937l-41.25 11.094c-1.0035 0.27478-1.6707 1.4313-1.4062 2.4375l11.062 41.219c0.2614 1.0148 1.4231 1.6998 2.4376 1.4375l20.469-5.4687 30.031 17.375c0.9141 0.5318 2.2324 0.1722 2.75-0.75l21.312-37c0.5175-0.9016 0.1767-2.1908-0.7187-2.7188l-36.969-21.312c-0.283-0.16909-0.6082-0.26669-0.9376-0.28125-0.7143-0.0174-1.4241 0.38102-1.7812 1l-0.7188 1.25-1.8437-6.8438c-0.2756-1.103-1.0743-1.6146-2.0313-1.5312zm-1.3124 4.5c3.3461 12.455 6.672 24.915 10 37.375-12.835 3.5145-26.274 7.0514-37.344 10l-10.031-37.344 37.375-10.031zm8.375 6.375 33.5 19.312-19.344 33.531-24.844-14.375 9.2813-2.5 16.656 9.5937c0.9087 0.5123 2.201 0.1559 2.7187-0.75l13.5-23.344c0.5123-0.90902 0.1558-2.2011-0.75-2.7188l-28.844-16.656c-0.2831-0.16909-0.6082-0.26669-0.9376-0.28125-0.7143-0.0174-1.4241 0.38102-1.7812 1l-0.625 1.0938-0.25-0.9375 1.7188-2.9688z"/>
<path d="m45.465 974.63a2.0002 2.0002 0 0 0-0.53259 0.0675l-31.3 8.3467a2.0002 2.0002 0 0 0-1.4162 2.4515l6.8064 25.317a2.0002 2.0002 0 0 0 2.4493 1.4129l31.26-8.3866a2.0002 2.0002 0 0 0 1.414-2.4482l-6.7666-25.278a2.0002 2.0002 0 0 0-1.9145-1.4827z"/>
</g>
</svg>
